<?xml version="1.0" encoding="UTF-8"?>
<svg id="Layer_2" data-name="Layer 2" xmlns="http://www.w3.org/2000/svg" xmlns:xlink="http://www.w3.org/1999/xlink" viewBox="0 0 209.15 359.12">
  <defs>
    <style>
      .cls-1 {
        fill: url(#linear-gradient);
      }

      .cls-1, .cls-2, .cls-3, .cls-4, .cls-5, .cls-6, .cls-7, .cls-8, .cls-9, .cls-10, .cls-11, .cls-12, .cls-13, .cls-14, .cls-15, .cls-16, .cls-17, .cls-18, .cls-19, .cls-20, .cls-21, .cls-22, .cls-23, .cls-24, .cls-25 {
        stroke-width: 0px;
      }

      .cls-26 {
        opacity: .5;
      }

      .cls-27 {
        opacity: .8;
      }

      .cls-2 {
        fill: #f8c145;
      }

      .cls-3 {
        fill: #f7a038;
      }

      .cls-4 {
        fill: #f9e398;
      }

      .cls-5 {
        fill: #f9dd6e;
      }

      .cls-6 {
        fill: #75736d;
      }

      .cls-7 {
        fill: #271614;
      }

      .cls-8 {
        fill: #2b131a;
      }

      .cls-9 {
        fill: #54262a;
      }

      .cls-10 {
        fill: #97615c;
      }

      .cls-11 {
        fill: #3d181d;
      }

      .cls-12 {
        fill: #160e0f;
      }

      .cls-13 {
        fill: #151924;
      }

      .cls-14 {
        fill: #22150b;
      }

      .cls-15 {
        fill: #dce4e6;
      }

      .cls-16 {
        fill: #d5d6cf;
      }

      .cls-17 {
        fill: #d85940;
      }

      .cls-18 {
        fill: #ba4435;
      }

      .cls-19 {
        fill: #743b3a;
      }

      .cls-20 {
        fill: #983023;
      }

      .cls-21 {
        fill: #fcf4dc;
      }

      .cls-22 {
        fill: #f07744;
      }

      .cls-23 {
        fill: #f6b13d;
      }

      .cls-24 {
        fill: #f4f2b3;
      }

      .cls-25 {
        fill: #69201b;
      }
    </style>
    <linearGradient id="linear-gradient" x1="102.22" y1="196.08" x2="111.31" y2="239.82" gradientUnits="userSpaceOnUse">
      <stop offset="0" stop-color="#df6244"/>
      <stop offset="1" stop-color="#a43a2d"/>
    </linearGradient>
  </defs>
  <g id="Layer_1-2" data-name="Layer 1">
    <g>
      <g>
        <path class="cls-22" d="m191.78,290.55c-.51.46-.63.31-.66.33-36.38,13.02-97.98,12.9-136.17,8.6-12.54-1.41-25.02-3.55-36.9-7.94-.61-.42-1.58-1.09-1.99-1.65-7.6-10.52,20.72-10.66,24.32-11.58.25-.06.17-.44.17-.66.65,2.72,3.22,6.13,5.63,7.61l-5.79.33c6.86,8.05,33.53,6.18,44.84,5.63.71.88,1.43,1.77,2.15,2.65,1.63.57,15.03-2.24,17.87-3.31,1.95-.04,10.4,4.93,21.01,2.48-.42-1.03-.69-2.08-.99-3.14,16.21,1.61,32.64.72,48.31-3.81l-10.59-1.82c1.88-1.18,4.29-4.8,4.63-6.95,5.07.73,35.76,2.84,24.16,13.24Z"/>
        <path class="cls-20" d="m162.99,284.26l10.59,1.82c-15.67,4.53-32.11,5.42-48.31,3.81-.04-.13-1.73-1.94-.5-2.32,8.61,1.37,31.15,1.13,38.22-3.31Z"/>
        <path class="cls-20" d="m85.22,291.21c-11.31.55-37.98,2.42-44.84-5.63l5.79-.33c8.2,5.03,28.28,3.7,38.22,3.97.91.68.76,1.9.83,1.99Z"/>
        <path class="cls-10" d="m191.12,290.88c-10.57,7.8-56.65,11.16-70.98,11.58-19.54.57-87.5-.95-102.09-10.92,11.88,4.39,24.36,6.53,36.9,7.94,38.19,4.3,99.79,4.42,136.17-8.6Z"/>
      </g>
      <g>
        <g class="cls-27">
          <path class="cls-5" d="m168.95,112.84c2.72,4.1,5.76,8.68,7.94,13.07,2.21,4.45,3.52,9.25,5.63,13.73,2.85,6.09,5.44,11.4,12.91,12.24-3.53,1.4-6.82,2.36-10.26,3.64-.93.35-2.81.64-2.98,1.16,3.23,15.94.36,33.62-7.94,47.65,1.12.08,2.21.33,3.31.5,2.51.39,6.46.79,8.93.66-3.24,1.63-7.69,1.43-11.25,1.99-.86.13-1.92-.09-2.81,0-3.48,3.92-7.17,7.77-11.09,11.25-8.13,7.24-12.91,10.15-22.83,14.89-.15-2.86.41-5.82.33-8.6,22.27-13.3,32.3-32.83,30.78-58.74-4.91-17.74,1.49-27.32-7.28-46.99-3.81-8.55-10.58-17.43-17.54-23.66l9.6-1.99c4.81,5.13,8.32,11.26,12.24,17.04.51.76,2.19,1.96,2.32,2.15Z"/>
          <path class="cls-5" d="m61.07,95.64c-10.28,10.94-20.71,26.92-21.84,42.19-.11,1.55-.11,19.81,0,20.85.01.13.91,2.23,1.32,2.15-.51,5.68-1.93,11.85-1.32,17.7.03.26.63.07.66.33,1.7,14.41,8.19,28.28,19.36,37.89.93.8,6.05,4.68,6.78,4.96l2.65,1.99c.03,2.76-.04,5.52,0,8.27,0,.22,0,.44,0,.66-7.39-3.32-14.07-7.96-20.19-13.24-3.01-2.6-5.62-5.64-8.6-8.27-1.1-.97-1.96-2.39-3.14-3.31-1.21-.09-3-.12-4.14-.33-3.7-.69-7.52-1.11-11.25-1.65.81-1.5,3.67-1.54,5.29-1.65.77-.05,1.55.04,2.32,0,3.25-.15,5.42.6,5.63-.17-8.38-14.17-10.55-31.32-7.28-47.32-.12-.34-2.41-.96-2.98-1.16-3.96-1.38-7.97-1.91-11.91-3.64,3.01-.16,6.08-1.01,8.44-2.98,1.7-1.42,6.38-8.06,5.79-9.93.71.12,1.09-.65,1.32-1.16,2.23-4.9,3.71-10.09,6.29-14.89,2.95-5.49,6.47-9.03,6.62-9.6.05-.2-.75-.06-.66-.5,3.49-1.5,5.3-6.77,7.61-9.76,2.17-2.81,4.76-5.34,6.95-8.11-.47.83,2.9.31,6.29.66Z"/>
          <path class="cls-2" d="m182.51,139.65c-2.1-4.49-3.41-9.29-5.63-13.73-2.19-4.4-5.22-8.97-7.94-13.07,14.28,4.23,29.48-6.03,30.11-21.01h.66c-.41,19.42-5.42,32.6-17.21,47.82Z"/>
          <path class="cls-2" d="m40.22,112.84c-.09.44.72.29.66.5-.15.56-3.67,4.11-6.62,9.6-2.58,4.81-4.05,9.99-6.29,14.89-.23.51-.62,1.28-1.32,1.16-.41-1.32-9.76-12.39-13.57-23.99-1.43-4.37-4.77-20.97-3.64-24.49.75-2.32.48,2.66.99,4.96,3.23,14.61,19.95,21.59,29.78,17.37Z"/>
          <g>
            <path class="cls-2" d="m93.5,79.75c-9.06,2.36-22.01,10.36-29.12,16.55-1.18-.46-2.08-.54-3.31-.66-3.39-.35-6.76.17-6.29-.66,3.83-4.83,7.3-9.97,11.25-14.73,4.87-5.86,10.79-10.9,15.55-16.88,9.4-11.79,18.36-28.7,21.18-43.52l.99-1.16c-.3,10.95,1.38,32.04,0,41.7-1.18,8.28-5.88,12.86-10.26,19.36Z"/>
            <path class="cls-2" d="m106.73,18.2c5.34,33.3,29.54,50.06,47.65,75.45l-9.6,1.99c-5.56-4.98-17.49-12.83-24.49-15.22-2.3-2.83-5.47-4.76-7.61-7.78-9.98-14.04-5.5-38.56-6.95-54.93l.99.5Z"/>
            <path class="cls-5" d="m106.73,18.2l-.99-.5c1.45,16.38-3.03,40.89,6.95,54.93,2.15,3.02,5.31,4.95,7.61,7.78-8.96-3.07-17.71-3.03-26.8-.66,4.38-6.5,9.08-11.08,10.26-19.36,1.38-9.65-.3-30.75,0-41.7l-.99,1.16c1.25-6.55,1.52-13.23,2.15-19.86.88,6.04.85,12.17,1.82,18.2Z"/>
          </g>
          <path class="cls-5" d="m33.27,220.06c3.98.35,8.08.86,12.08.33,6.84,6.17,15,10.97,23.66,13.9,0,.98.07,2,0,2.98-.05.77.04,1.55,0,2.32.06,1.15-.94.95-.99.99.16-1.74-9.07-6.73-11.09-7.61-3.4-1.49-7.64-2.78-11.25-3.64-1.52-.36-2.04.36-2.15.33-11.09-2.52-9.02-2.32-16.55-10.26,2.12,0,4.18.48,6.29.66Z"/>
          <g>
            <path class="cls-2" d="m179.2,203.51c4.82-7.56,4.52-19.71,4.96-20.68.47-1.02,1.98-1.13,2.32-1.65,1.74-2.69.29-21.49-1.32-25.65,3.43-1.28,6.73-2.24,10.26-3.64.3-.12,3.12-.19,6.12-1.99,3.98-2.38,7.03-7.72,7.61-12.24-.17,16.84-8.98,35.77-24.32,45.17-.11,1.23,15.89,5.18,21.01-6.78-1.88,10.84-11.34,22.89-21.84,26.8-.96.36-4.56.61-4.8.66Z"/>
            <path class="cls-23" d="m179.2,203.51c-.13.03-1.89.88-1.65,1.32-1.1-.17-2.19-.42-3.31-.5,8.3-14.03,11.17-31.71,7.94-47.65.17-.51,2.05-.81,2.98-1.16,1.61,4.16,3.07,22.95,1.32,25.65-.34.53-1.85.63-2.32,1.65-.45.98-.15,13.13-4.96,20.68Z"/>
          </g>
          <g>
            <path class="cls-5" d="m182.18,218.74c-.88,4.94-5.55,8.63-10.09,10.59-2.34-.74-4.76-.3-7.11,0-.08,0-.37-.6-1.49-.33-2.23.55-11.9,6.57,0,2.98l-.5,2.65c-3.59,6.08-10.03,9.82-16.21,12.91-1.74-1.86-7.21-6.19-7.61-6.95v-.33c2.27-.12,15.48-6.06,15.22-7.45-.26-1.37-2.49-.04-1.99-2.81,4.24-2.59,8.48-6.5,11.75-10.26,4.55.53,13.97.53,18.04-.99Z"/>
            <path class="cls-4" d="m164.97,229.33c-.02,2.12-.99,3.6-1.99,5.29l.5-2.65c-11.9,3.6-2.23-2.43,0-2.98,1.12-.27,1.41.34,1.49.33Z"/>
          </g>
          <g>
            <path class="cls-2" d="m182.18,218.74c-4.06,1.52-13.49,1.52-18.04.99-3.27,3.76-7.51,7.67-11.75,10.26-.63.38-12.09,6.19-13.07,6.62-.05.02-.25-.4-.5-.33-.05-.52-.25-1.17-.33-2.65,9.92-4.74,14.7-7.65,22.83-14.89,8.11,2.6,6.69-.95,9.6-4.8,2.34-3.1,5.12-5.08,4.3-6.45,3.56-.55,8.01-.35,11.25-1.99,3.55-.18,5.62-.72,8.44-3.31-1.59,4.55-3.89,10.4-7.94,13.57-.22.17-4.53,2.88-4.8,2.98Z"/>
            <path class="cls-23" d="m175.23,207.49c.81,1.37-1.96,3.35-4.3,6.45-2.9,3.85-1.49,7.4-9.6,4.8,3.91-3.48,7.6-7.33,11.09-11.25.89-.09,1.95.13,2.81,0Z"/>
          </g>
          <g>
            <path class="cls-21" d="m120.3,80.41c6.99,2.4,18.93,10.25,24.49,15.22,6.96,6.23,13.73,15.11,17.54,23.66,8.77,19.67,2.37,29.25,7.28,46.99,1.52,25.91-8.51,45.44-30.78,58.74-.12-4.23,0-8.73-.33-12.91,1.65.32-.22,8.14,1.16,8.6,23.66-13.57,32.45-38.91,25.65-65.03,1.59-23.89-4.02-42.57-22.01-58.74-19.45-17.48-39.7-21.92-63.21-8.93-26.41,14.59-37.4,38.34-36.24,68-10.08,45.05,21.91,60.76,23.83,63.87,1.41,2.28.29,2.58-1.65,1.82-.74-.29-5.85-4.16-6.78-4.96-11.17-9.61-17.66-23.48-19.36-37.89-.03-.26-.63-.07-.66-.33-.61-5.85.82-12.02,1.32-17.7.53-5.99,2.3-11.94.99-18.04,1.46-17.62,9.39-34.79,22.83-46.49,7.11-6.19,20.06-14.18,29.12-16.55,9.1-2.37,17.85-2.41,26.8.66Z"/>
            <path class="cls-21" d="m138.5,212.12c-.32-4.03-.43-5.88-3.31-8.93-.87-.92-.95-.62-.99-.66-7.29-6.72-10.59-6.24-18.53-9.6-.92-.39-1.26-.3-1.32-.33-.59-.26-2.82-1.08-2.98-1.49.19-3.28-1.03-8.85-.66-11.58.75-5.59,4.46-4.4,5.63-6.95.67-1.47.97-3.96-.33-5.13-.69-.62-.21-.7-1.99-.66,7.65-23.04-26.14-23.1-20.52-1.65.01,2.77-3.57,2.29-1.65,7.45.81,2.18,2.33,2.67,4.3,3.47.12.56.89,1.59,1.32,4.63.48,3.36.19,6.74.66,10.09-1.21.47-2.47,1.35-3.64,1.82-4,1.61-7.46,1.49-15.88,5.96-1.46.78-2.95,1.29-4.3,2.32-8.69,6.57-5.74,13.44-5.63,22.83l-2.65-1.99c1.94.76,3.06.46,1.65-1.82-1.92-3.11-33.91-18.81-23.83-63.87-1.16-29.66,9.83-53.42,36.24-68,23.51-12.99,43.75-8.55,63.21,8.93,17.99,16.17,23.6,34.84,22.01,58.74,6.8,26.12-1.99,51.46-25.65,65.03-1.38-.47.49-8.29-1.16-8.6Z"/>
          </g>
          <g>
            <path class="cls-2" d="m12.42,151.89c3.95,1.73,7.95,2.26,11.91,3.64-.74.53-1.06.94-1.32,1.82-.95,3.19-2.85,20.03-1.99,22.5.15.44,3.15,1.87,3.31,2.32.37,1.07.13,13.6,4.63,22.01-.77.04-1.55-.05-2.32,0-.91-1.44-5.24-1.88-6.78-2.65-7.49-3.74-16.08-18.85-16.88-27.14,3.14,9.3,12.33,12.9,21.01,8.44C8.91,173.36-.37,152.51.01,135.01c1.14,9.26,4.02,13.2,12.41,16.88Z"/>
            <path class="cls-23" d="m28.97,204.18c-4.51-8.41-4.26-20.94-4.63-22.01-.15-.44-3.15-1.87-3.31-2.32-.86-2.48,1.04-19.31,1.99-22.5.26-.88.58-1.29,1.32-1.82.57.2,2.86.82,2.98,1.16-3.27,16-1.09,33.15,7.28,47.32-.21.77-2.37.01-5.63.17Z"/>
          </g>
          <path class="cls-5" d="m64.37,96.3c-13.44,11.7-21.37,28.87-22.83,46.49,1.31,6.09-.46,12.04-.99,18.04-.41.07-1.31-2.03-1.32-2.15-.11-1.04-.11-19.3,0-20.85,1.13-15.27,11.56-31.25,21.84-42.19,1.23.13,2.13.2,3.31.66Z"/>
          <g>
            <path class="cls-2" d="m21.36,205.83c3.73.54,7.55.97,11.25,1.65-1.63,1.9,6.94,11.72,5.46,12.57h-4.8c-2.11-.18-4.17-.66-6.29-.66-5.68-5.99-8.87-9.64-12.57-17.37l.5-.5c1.78,1.88,3.93,3.56,6.45,4.3Z"/>
            <path class="cls-23" d="m39.89,211.13c-.29.77,1.07,8.75,1.49,8.93,2.47-.2,4.9.63,7.11-.66,6.12,5.28,12.79,9.92,20.19,13.24,0,.13.33.32.33,1.65-8.66-2.93-16.82-7.73-23.66-13.9-4,.53-8.1.02-12.08-.33h4.8c1.48-.85-7.09-10.67-5.46-12.57,1.14.21,2.92.24,4.14.33,1.18.92,2.05,2.34,3.14,3.31Z"/>
            <path class="cls-3" d="m48.49,219.4c-2.21,1.29-4.65.46-7.11.66-.42-.19-1.78-8.17-1.49-8.93,2.98,2.64,5.6,5.68,8.6,8.27Z"/>
          </g>
          <path class="cls-5" d="m152.4,229.99c-.51,2.77,1.73,1.44,1.99,2.81.26,1.38-12.95,7.32-15.22,7.45-.97-2.84-.3-3.67-.33-3.97.25-.07.45.35.5.33.98-.43,12.45-6.24,13.07-6.62Z"/>
          <g>
            <path class="cls-5" d="m68.02,240.58c-.61.47-1.68.59-2.15.99-1.97,1.68-3.63,3.8-5.46,5.63-2.1-.66-11.22-9.21-12.24-10.42-1.76-2.08-2.87-5.02-4.63-7.11.11.02.63-.69,2.15-.33,3.61.86,7.85,2.15,11.25,3.64,2.01.88,11.25,5.88,11.09,7.61Z"/>
            <path class="cls-4" d="m80.26,247.86c.12,3.78.01,7.86.33,11.58-4.35-3.83.28.83-.33,2.15-.35.77-3.9-1.06-3.64-2.65.31-1.87,4.66.86-3.31-7.78.24-.25,3.61-5.04,3.97-5.63l2.98,2.32Z"/>
          </g>
          <path class="cls-24" d="m80.26,247.86l-2.98-2.32c.95-1.56,1.99-3.58,2.65-5.29.66,2.47.25,5.1.33,7.61Z"/>
        </g>
        <g>
          <g>
            <path class="cls-13" d="m156.37,262.42c.38.12.56.4.83.66l.17-.66c.97.1,1.78.63,2.65.99,4.27,1.79,3.04,3.53,5.96,4.3,1.57,2.74,2.14,6.5,1.65,9.6-.34,2.15-2.75,5.77-4.63,6.95-7.07,4.44-29.61,4.68-38.22,3.31-1.23.38.46,2.18.5,2.32.3,1.07.57,2.11.99,3.14-10.61,2.45-19.07-2.52-21.01-2.48-2.84,1.07-16.24,3.88-17.87,3.31-.73-.87-1.44-1.76-2.15-2.65-.07-.08.08-1.31-.83-1.99-9.95-.27-30.02,1.06-38.22-3.97-2.41-1.48-4.97-4.89-5.63-7.61-.02-.1.02-.22,0-.33,1.5,1.02,1.73,4.2,4.8,6.62,7.32,5.77,30.65,4.62,40.21,4.3,1.5,1.05,2.47,3.97,2.65,4.14,1.03.96.95.09,1.32.17,1.84.35,13.08-1.42,14.39-2.32.36-.25-.15-.28-.17-.66,7.72,1.73,13.13,4.75,21.51,2.81.14-.19-1.46-3.85-1.65-4.47-.27-.85.82-.49.66-1.16-4.48-5.63-4.34-3.37-12.08.83l-1.99-8.27-3.14,6.62c-.32-.62-4-4.41-5.13-6.62-.61,0-1.23-.21-1.82-.33-3.36-.7-5.12.26-7.45,0-.72-.08-10.83-3.6-13.9-4.3-2.27-.52-26.78-5.13-26.31-7.11,19.3-9.82,34.16,5.98,39.38,7.78,5.44,1.87,21.49.77,26.8-1.65,1.61,1.34,6.71-1.08,11.09-1.99,7.73-1.59,29.03-3.09,22.17-6.62-1.31-.68-22.69,1.33-24.82,1.99-1.97.6-1.72,1.86-3.14,2.32.87-1.1,4.31-7.01,4.3-7.94h.66c9.17-.85,18.3.83,27.47.99Z"/>
            <path class="cls-13" d="m80.59,262.09c.87,4.1,7.05,11.17,11.25,13.24-5.22-1.8-20.08-17.6-39.38-7.78-.47,1.98,24.04,6.59,26.31,7.11,3.07.71,13.18,4.22,13.9,4.3,2.33.26,4.08-.7,7.45,0-.21.02-.49-.05-.66,0-2.87.78-2.27-.8-5.96,1.32-3.17,1.83-6.02,4.9-7.94,7.94-9.55.32-32.89,1.46-40.21-4.3-3.07-2.42-3.29-5.6-4.8-6.62-.96-4.78-.15-8.96,3.97-11.91.07-.05.79.16,1.32-.99,1.57-.02,3.13-.62,4.63-.99,3.18.55,6.45-.45,9.6-.66,6.8-.46,13.71-.21,20.52-.66Z"/>
            <path class="cls-13" d="m118.65,273.67c2.42-1.1,3.69-2.29,5.29-4.3,1.43-.46,1.17-1.71,3.14-2.32,2.13-.65,23.5-2.66,24.82-1.99,6.85,3.52-14.44,5.02-22.17,6.62-4.38.9-9.48,3.33-11.09,1.99Z"/>
          </g>
          <path class="cls-5" d="m60.07,262.75c-3.15.21-6.41,1.21-9.6.66.1-.03.23.03.33,0,2.52-.68,12.69-5.46,15.22-6.95q-2.98,3.14-5.96,6.29Z"/>
          <g>
            <path class="cls-9" d="m123.61,287.9c-5.36,3.15-14.36,3.7-16.05.99-.54-.86.49-1.07-.5-2.98l3.14-6.62,1.99,8.27c7.74-4.2,7.6-6.46,12.08-.83.16.67-.93.31-.66,1.16Z"/>
            <g>
              <path class="cls-8" d="m100.11,278.96c.59.12,1.21.33,1.82.33,1.13,2.21,4.81,6,5.13,6.62.99,1.91-.04,2.12.5,2.98,1.69,2.71,10.69,2.16,16.05-.99.2.62,1.8,4.28,1.65,4.47-8.38,1.93-13.79-1.09-21.51-2.81l-9.6-3.64c1.56-2.09,2.97-4.25,4.63-6.29.05-.06.83.27.66-.66.17-.05.45.02.66,0Z"/>
              <path class="cls-11" d="m98.79,279.63c-1.67,2.04-3.07,4.19-4.63,6.29-1.61,2.15-3.53,4.11-4.63,6.62-.38-.07-.3.8-1.32-.17-.18-.17-1.14-3.09-2.65-4.14,1.92-3.04,4.77-6.11,7.94-7.94,1.63.48.19,1.37.83,1.65.24.11,1.79-2.83,4.47-2.32Z"/>
              <path class="cls-13" d="m103.75,289.55c.01.38.53.42.17.66-1.31.89-12.56,2.66-14.39,2.32,1.1-2.51,3.03-4.46,4.63-6.62l9.6,3.64Z"/>
              <path class="cls-19" d="m99.45,278.96c.17.93-.62.61-.66.66-2.68-.51-4.22,2.42-4.47,2.32-.63-.28.81-1.17-.83-1.65,3.68-2.13,3.09-.55,5.96-1.32Z"/>
            </g>
          </g>
          <g>
            <path class="cls-9" d="m146.77,247.53c4.3,4.58,7.09,9.87,13.73,11.58.68.18,2.23.61,2.81.33,1.12-.53.81-1.54,1.16-1.65.48-.16.83.66.99.66,5.82.07,2.97.31,4.14.66,2.2.66,4.52,1.84,3.31-1.99.05,0-.33-.87.83-.66,1.3.91,1.11,1.9,2.98.99.43.3-.19,1.11.5,1.65.07.05.25-.05.33,0-.4,3-12.97,3.37-17.54,4.3-.87-.36-1.68-.89-2.65-.99-8.99-5.69-18.31-10.81-26.47-17.7q4.14-2.07,8.27-4.14c.4.76,5.87,5.09,7.61,6.95Z"/>
            <path class="cls-9" d="m46.17,260.1c5.73-3.8,9.5-8.2,14.23-12.91,1.83-1.82,3.49-3.94,5.46-5.63.47-.4,1.54-.52,2.15-.99.06-.04,1.05.16.99-.99l3.64,3.81c-7.86,5.03-19.43,17.23-26.64,17.37-.38-.18.36-.58.17-.66Z"/>
            <path class="cls-11" d="m177.22,259.11c-.69-.54-.07-1.35-.5-1.65-1.87.9-1.68-.08-2.98-.99-1.15-.2-.77.66-.83.66-1.18.03-3.4-.9-3.31,1.99-1.16-.35,1.68-.59-4.14-.66-.16,0-.51-.82-.99-.66-.35.12-.04,1.13-1.16,1.65,2.06-8.22,13.87-10.27,13.9-.33Z"/>
            <path class="cls-11" d="m165.97,267.71c-2.92-.77-1.69-2.51-5.96-4.3,4.57-.93,17.14-1.3,17.54-4.3.86.58,2.64.44,3.64,1.16-4.82,4.03-11.32,4.79-17.37,4.8.38,1.13,1.57,1.64,2.15,2.65Z"/>
            <path class="cls-11" d="m31.61,260.43c.12.37-.2.99.17,1.32.56.51,11.6,2.68,14.06,2.65-.53,1.16-1.26.94-1.32.99-4.17.06-8.43.16-12.41-1.32-4.11-1.53-8.75-5.15-.5-3.64Z"/>
            <path class="cls-11" d="m138.5,212.12c.33,4.18.21,8.68.33,12.91.08,2.78-.48,5.74-.33,8.6.08,1.48.28,2.13.33,2.65.03.3-.64,1.13.33,3.97v.33q-4.14,2.07-8.27,4.14c8.16,6.89,17.48,12.01,26.47,17.7l-.17.66c-.27-.26-.44-.54-.83-.66-12.67-4.03-22.43-5.68-27.47-19.86,5.09-4.92,10.19-.87,8.93-7.78-.6-1.01-8.79,4.69-9.6,3.97-.59-.53.13-2.43-.99-2.15-.07-.53.04-1.11,0-1.65-.7-10.38,5.9-21.45,7.94-31.77,2.88,3.06,2.99,4.9,3.31,8.93Z"/>
            <path class="cls-9" d="m75.63,210.46c.44,2.31.86,4.64,1.32,6.95,1.3,6.4,2.9,12.74,3.97,19.19-1.99.45-10.86-1.15-11.58-2.48-.28-.52.58-2.39-.66-2.15-.04-2.76.03-5.52,0-8.27-.11-9.39-3.06-16.27,5.63-22.83-.36,3.29.72,6.41,1.32,9.6Z"/>
            <path class="cls-11" d="m80.92,236.61v1.32c-.04.45-.21.89-.33,1.32-.02.06-.25-.07-.66.99-.65,1.71-1.69,3.74-2.65,5.29-.36.59-3.74,5.37-3.97,5.63-1.62,1.73-5.14,4.04-7.28,5.29-2.53,1.49-12.7,6.27-15.22,6.95,1.94-2.8,6.21-1.33,7.11-5.96q8.36-5.87,16.71-11.75l.99-6.62-6.62-1.82c.07-.98,0-2,0-2.98,0-1.34-.33-1.53-.33-1.65,0-.22,0-.44,0-.66,1.24-.24.38,1.63.66,2.15.72,1.33,9.59,2.93,11.58,2.48Z"/>
            <path class="cls-16" d="m172.92,257.12c1.21,3.82-1.11,2.65-3.31,1.99-.09-2.88,2.13-1.95,3.31-1.99Z"/>
            <g>
              <path class="cls-11" d="m50.81,263.41c-.1.03-.23-.03-.33,0-1.5.37-3.06.97-4.63.99-2.47.03-13.51-2.14-14.06-2.65-.36-.33-.05-.95-.17-1.32-2.54-8.15,10.09-11.19,13.24-.5.67.88.77-.08,1.32.17.19.09-.54.48-.17.66,7.21-.14,18.78-12.34,26.64-17.37l-3.64-3.81c.04-.77-.05-1.55,0-2.32l6.62,1.82-.99,6.62q-8.36,5.87-16.71,11.75c-.91,4.63-5.18,3.16-7.11,5.96Z"/>
              <path class="cls-15" d="m36.08,257.12c3.17-.98,4.16,3.23,1.32,3.64-2.58.38-3.42-2.99-1.32-3.64Z"/>
            </g>
            <path class="cls-11" d="m128.9,242.56c-.62-1.74-1.43-4.18-1.65-5.96,1.12-.28.4,1.62.99,2.15.8.72,9-4.98,9.6-3.97,1.26,6.9-3.84,2.86-8.93,7.78Z"/>
            <path class="cls-13" d="m114.01,166.78c-.36,0-.43.68-1.32,0,.24-1.62-.64-1.57-.66-1.65-2.88-11.39-15.36-8.31-17.21-.33l-1.32.33c-5.63-21.45,28.17-21.38,20.52,1.65Z"/>
            <path class="cls-11" d="m114.34,192.59c-.1,1.34-3.26,4.77-4.14,5.29-4.09,2.44-6.12.75-6.45.66-.12-3.28-2.34-11.85-3.64-14.39-.06-.12-1.6-.37-.99-2.15,1.5.84,1.75.53,2.65.66,2.16.32,3.48.46,5.46-.66,3.13-1.78,2.07-3.58,2.15-3.81.04-.11.98-1.08.99-1.16.46,2.89,1.05-1.45,1.32-1.82.77-1.07,5.93-.93,4.3-7.78,1.3,1.17,1,3.66.33,5.13-1.16,2.55-4.87,1.36-5.63,6.95-.37,2.73.85,8.31.66,11.58.16.41,2.39,1.23,2.98,1.49Z"/>
            <path class="cls-9" d="m99.12,182c-.61,1.78.93,2.03.99,2.15,1.3,2.55,3.52,11.11,3.64,14.39-2.92-.78-8.84-3.09-9.27-5.96,1.17-.47,2.43-1.35,3.64-1.82-.47-3.36-.19-6.74-.66-10.09.82,0,1.07,1,1.65,1.32Z"/>
            <g>
              <path class="cls-17" d="m134.2,202.52c-.44,2.47-1.75,4.65-2.65,6.95-1.12-2.72-2.3-5.51-3.31-8.27-.11-.3.14-2.13-.66-1.32,0-.1-.68-.32-.17-1.99-.99,1.94-11.58-1.12-11.91-1.65-.35-.57-.28-2.6.17-3.31,7.94,3.35,11.24,2.87,18.53,9.6Z"/>
              <path class="cls-17" d="m78.6,198.55c-.9,1.44.44.42.66,1.65-.68-.46-.92,2.93-1.32,5.96-.7,5.22.34,7.6-2.32,4.3-.61-3.19-1.69-6.3-1.32-9.6,1.36-1.02,2.84-1.54,4.3-2.32Z"/>
              <path class="cls-18" d="m76.95,217.41c-.47-2.31-.88-4.63-1.32-6.95,2.66,3.29,1.61.92,2.32-4.3,1.28,1.7.37,7.94.66,11.75-1.17.54.02-1.23-1.65-.5Z"/>
              <path class="cls-25" d="m96.47,244.22c5.44,6.45,15.12,13.52,20.19,2.48.72-1.58,4.44-13.28,3.31-14.06.25-.45.39-.86.66-1.32.46-.78.84-1.48,1.16-2.32.97-.05-2.07,13.47-2.48,14.73-5.29,16.34-15.54,12.92-22.83.5Z"/>
              <path class="cls-20" d="m128.24,201.2c-.34,2.9.36,9.71,1.99,11.91-.38.83-1.52,4.36-2.15,4.63-4.71,2.02.12-9.52-2.15-10.26.29-1.39,1.64-7.22,1.65-7.61.8-.81.55,1.03.66,1.32Z"/>
              <path class="cls-18" d="m131.55,209.47c-.47,1.2-.78,2.46-1.32,3.64-1.62-2.2-2.33-9.01-1.99-11.91,1.01,2.76,2.19,5.55,3.31,8.27Z"/>
              <g>
                <path class="cls-20" d="m79.27,200.21c.21,1.15.15,4.89.66,7.78.35,1.96,3.04,15.12,3.31,15.88.12.34.87,0,.99.33,1.44,3.89,3.06,7.57,4.96,11.25l1.99.99c1.55,2.17,3.65,5.83,5.29,7.78,7.29,12.43,17.55,15.84,22.83-.5.41-1.26,3.46-14.78,2.48-14.73-.32.84-.7,1.54-1.16,2.32-.02-.87.27-1.65-.66-.99.88-2.25,5.25-19.44,5.96-22.83,2.27.74-2.56,12.28,2.15,10.26.63-.27,1.77-3.81,2.15-4.63.55-1.18.85-2.44,1.32-3.64.9-2.3,2.21-4.48,2.65-6.95.04.04.12-.26.99.66-2.04,10.32-8.64,21.39-7.94,31.77-.57,4.53-2.1,17.64-1.65,20.85.29,2.08,2.07,3.21,2.65,5.63,0,.93-3.43,6.84-4.3,7.94-1.6,2.01-2.88,3.2-5.29,4.3-5.32,2.42-21.36,3.53-26.8,1.65-4.21-2.07-10.38-9.14-11.25-13.24-.14-.64.07-1.8,0-2.65-.32-3.73-.21-7.8-.33-11.58-.08-2.51.33-5.14-.33-7.61.41-1.07.65-.94.66-.99,3.23,16.7,12.24,35.55,32.43,29.95-6.26,3.2-16.1,4.12-22.01-.17-.93-.67-7.91-7.84-1.82-.5,7.09,8.54,23.01,4.67,29.12-3.64-21.91,12.64-31.55-9.75-37.39-26.97v-1.32c-1.07-6.45-2.67-12.79-3.97-19.19,1.68-.74.49,1.04,1.65.5-.3-3.81.61-10.05-.66-11.75.41-3.03.64-6.42,1.32-5.96Z"/>
                <path class="cls-25" d="m80.59,239.25c.12-.44.29-.87.33-1.32,5.84,17.22,15.49,39.61,37.39,26.97-6.11,8.31-22.03,12.18-29.12,3.64-6.09-7.34.89-.18,1.82.5,5.91,4.29,15.74,3.37,22.01.17-20.19,5.6-29.2-13.25-32.43-29.95Z"/>
                <path class="cls-25" d="m118.65,258.78c-4.63,8.27-14.3,7.48-21.01,2.32-9.52-7.33-13.47-25.16-14.73-36.57,4.06,11.41,7.37,34.74,21.34,38.22,7.13,1.78,9.09-.12,14.39-3.97Z"/>
                <path class="cls-25" d="m93.66,243.89c3.79,7.39,14.18,20.7,22.34,10.75,1.51-1.84,3.47-7.19,2.98-3.97-.08.54-2.19,4.37-2.65,4.96-10.5,13.56-24.1-11.03-22.67-11.75Z"/>
                <path class="cls-25" d="m118.65,258.78s-.16-1.08.66-.5c-.36.5-.64.46-.66.5Z"/>
              </g>
              <g>
                <path class="cls-1" d="m94.49,192.59c.42,2.87,6.35,5.17,9.27,5.96.34.09,2.36,1.78,6.45-.66.87-.52,4.03-3.96,4.14-5.29.06.03.4-.06,1.32.33-.44.71-.52,2.74-.17,3.31.33.53,10.93,3.6,11.91,1.65-.51,1.67.17,1.89.17,1.99-.02.39-1.36,6.22-1.65,7.61-.71,3.39-5.08,20.58-5.96,22.83-2.94,7.55-10.42,15.78-19.19,15.06,10.75,3.85,14.93-5.07,19.19-12.74,1.13.79-2.58,12.49-3.31,14.06-5.07,11.04-14.74,3.97-20.19-2.48-1.64-1.94-3.75-5.61-5.29-7.78l-1.99-.99c-1.9-3.68-3.53-7.36-4.96-11.25-.12-.34-.88,0-.99-.33-.27-.77-2.96-13.92-3.31-15.88-.51-2.89-.46-6.62-.66-7.78-.22-1.23-1.56-.21-.66-1.65,8.43-4.47,11.88-4.34,15.88-5.96Z"/>
                <g>
                  <path class="cls-25" d="m120.63,231.31c-.27.46-.41.87-.66,1.32-4.27,7.67-8.44,16.59-19.19,12.74,8.77.72,16.25-7.51,19.19-15.06.93-.65.64.13.66.99Z"/>
                  <path class="cls-20" d="m121.95,207.49c-1.99,4.14-4.3,8.23-7.28,11.75-10.72,12.62-17.01,10.12-25.48-2.98l7.11,7.11c7.95,4.93,15.86-2.48,20.68-8.44,2.13-2.63,3.58-6.35,3.97-6.95.12-.18.87-.33.99-.5Z"/>
                  <path class="cls-18" d="m89.69,197.56c2.51,4.34,10.88,12.19,15.88,11.58,1.27-.16,4.8-3.07,6.45-3.14-1.72,1.46-5.9,5-8.11,4.8-3.96-.36-13.31-8.8-14.23-13.24Z"/>
                  <path class="cls-18" d="m96.64,199.54c8.86,6.79,7.06,4.26,16.05,1.82-7.73,5.69-9.48,6.44-16.05-1.82Z"/>
                  <path class="cls-20" d="m121.95,207.49c.06-.13.07-1.04.83-1.65.52.72-.66,1.43-.83,1.65Z"/>
                </g>
              </g>
            </g>
            <g>
              <path class="cls-7" d="m114.01,166.78c1.78-.03,1.3.04,1.99.66,1.63,6.85-3.53,6.71-4.3,7.78-.27.37-.86,4.71-1.32,1.82.21-1.03.44-1.9-.33-2.65,2.72-1.97,1.77-4.57,2.65-7.61.89.68.97,0,1.32,0Z"/>
              <path class="cls-8" d="m94.82,164.8c-1.24,5.33.37,6.65,1.32,11.25-1.97-.8-3.49-1.29-4.3-3.47-1.92-5.16,1.67-4.67,1.65-7.45l1.32-.33Z"/>
              <path class="cls-11" d="m110.37,177.04c-.02.07-.95,1.04-.99,1.16-.09.23.98,2.03-2.15,3.81-1.98,1.12-3.3.99-5.46.66,3.74-.82-1.42-5.25-.99-5.79.67-.39,1.62-.03,2.32-.17,1.86-.36,5.52-1.28,6.95-2.32.77.75.54,1.62.33,2.65Z"/>
              <path class="cls-9" d="m112.69,166.78c-.87,3.04.07,5.64-2.65,7.61-1.43,1.04-5.09,1.96-6.95,2.32.63-1.97-.38-2-.33-2.32,3.48-.68,5.03-1.92,2.65-4.96.47-.13.71-.65.83-.66.85-.06.91.34,1.16.33.22-.01,3.16,1.4,2.65-1.32-.32-1.69-1.74-.5-.99-1.65.81.04,1.64.69,2.48.66.39-.21-.32-.47-.17-.66.04-.05.8-.18.66-.99.02.09.9.04.66,1.65Z"/>
              <path class="cls-9" d="m105.41,169.43c2.38,3.05.83,4.28-2.65,4.96.2-1.31,1.3-1.63,1.32-2.15.01-.35-1.18-1.56-.66-2.65.27-.57,1.87-.13,1.99-.17Z"/>
              <g>
                <path class="cls-9" d="m112.03,165.13c.14.81-.63.95-.66.99-2.72-2.39-6.09-.05-4.8.66.11.06.82-.75,2.48-.66-.75,1.15.67-.04.99,1.65-1.4-1.32-2.84-.61-2.65,1.32-.24.01-.31-.39-1.16-.33-.11,0-.36.53-.83.66-.12.03-1.71-.4-1.99.17-.52,1.09.68,2.3.66,2.65-.02.52-1.12.84-1.32,2.15-.05.32.96.35.33,2.32-.7.13-1.65-.22-2.32.17-.43.54,4.73,4.97.99,5.79-.9-.13-1.14.18-2.65-.66-.58-.32-.83-1.32-1.65-1.32-.43-3.05-1.21-4.07-1.32-4.63-.95-4.6-2.56-5.92-1.32-11.25,1.85-7.98,14.33-11.06,17.21.33Z"/>
                <path class="cls-7" d="m97.63,164.8c1-.33,4.23,1.61,4.14,1.82-3.91-.99-4.6.31-4.8.17-.57-.41.09-1.8.66-1.99Z"/>
                <path class="cls-7" d="m110.04,167.78c.51,2.72-2.42,1.31-2.65,1.32-.2-1.94,1.24-2.64,2.65-1.32Z"/>
                <path class="cls-11" d="m111.37,166.12c-.15.19.56.46.17.66-.84.03-1.67-.62-2.48-.66-1.66-.09-2.37.72-2.48.66-1.29-.71,2.08-3.05,4.8-.66Z"/>
                <path class="cls-12" d="m99.29,167.11c1.88-.46,2.01,2.05.66,2.32-1.22.24-2.2-1.94-.66-2.32Z"/>
              </g>
            </g>
          </g>
        </g>
      </g>
    </g>
    <g class="cls-26">
      <path class="cls-14" d="m44.63,344.5c37.59,1.26,75.48-1.58,113.03,0,4.51.19,9.16.24,13.64.65,32.02,2.9,29.44,6.41,0,10.39-8.25-7.82-51.77-4.68-68.53-4.55-.17,0-1.19-1.32-3.25-1.3-1.1.01-8.31,2.57-10.39,2.6-12.22.19-27.71-6.87-39.95,3.9-4.02-.45-25.94-3.06-27.61-4.55-5.69-5.08,10.15-5.43,12.67-5.85,3.41-.56,6.94-.81,10.39-1.3Z"/>
      <path class="cls-6" d="m171.3,355.55c-34.77,4.7-87.2,4.6-122.13.65,12.24-10.77,27.73-3.71,39.95-3.9,2.08-.03,9.3-2.59,10.39-2.6,2.06-.02,3.07,1.3,3.25,1.3,16.76-.13,60.29-3.27,68.53,4.55Z"/>
    </g>
  </g>
</svg>